<?xml version="1.0" encoding="utf-8"?>
<!-- Generator: Adobe Illustrator 23.0.2, SVG Export Plug-In . SVG Version: 6.00 Build 0)  -->
<svg version="1.1"
	 id="Layer_1" xmlns:cc="http://creativecommons.org/ns#" xmlns:dc="http://purl.org/dc/elements/1.1/" xmlns:rdf="http://www.w3.org/1999/02/22-rdf-syntax-ns#"
	 xmlns="http://www.w3.org/2000/svg" xmlns:xlink="http://www.w3.org/1999/xlink" x="0px" y="0px" viewBox="0 0 293.20001 41.8"
	 style="enable-background:new 0 0 293.20001 41.8;" xml:space="preserve">
<path d="M54.8,41.7h12.5V18H60c-3.1,0-5.1,1.3-7.2,3c-2.3,2-10.6,9.2-10.6,9.2V18h-7.4c-4.2,0-6.3,1.5-8.6,3.3
	C24.5,22.5,0,41.7,0,41.7h14.9l14.7-12.1v12.1h12l13.2-12V41.7z M82,41.7h20.2v-6.1H85.7c-1.5,0-3.2-0.9-3.2-3.9v-0.4
	c0-2.7,1.4-3.8,3.1-3.8h16.6v-6.2H81.6c-8.4,0-11.8,3.7-11.8,9.3v1.9C69.8,39.1,73.5,41.7,82,41.7L82,41.7z M127.2,41.7v-6.2h-9.7
	V18H105v23.8L127.2,41.7L127.2,41.7z M151.5,33.8c0,1.2-0.5,1.9-1.89999,1.9h-6.8c-1.2,0-1.89999-0.4-1.89999-1.2
	c0-0.9,0.5-1.5,1.89999-1.5h8.7V33.8z M164,33.8v-4.5c0-5.1-3.39999-8-10.60001-8H131v5.9h18c1.8,0,2.5,0.6,2.5,2v0.2h-14.3
	c-6,0-8.10001,2.5-8.10001,5.8v0.6c-0.10001,1.3,0.39999,2.6,1.39999,3.5c1.8,1.7,5.10001,2.2,9.7,2.2h12.39999
	C160.60001,41.7,164,39.9,164,33.8L164,33.8z M179.2,27.5h7.8v-6.2h-16c-2.60001,0-4.2,1.4-4.2,3.7v16.8h12.60001V27.5H179.2z
	 M211.60001,28.6c0,0.9-0.39999,1.4-1.8,1.4h-8.89999v-0.8c0-1.2,0.5-1.9,1.89999-1.9h6.8C210.8,27.3,211.60001,27.6,211.60001,28.6
	L211.60001,28.6z M223.39999,28.1v-0.8c0-3.4-1.89999-6-10.7-6H199.8c-8.10001,0-11.5,2.8-11.5,8.8v3.5
	c0,5.1,3.39999,8.1,10.60001,8.1H221.8v-6H203.2c-1.8,0-2.5-0.5-2.5-1.9v-0.2h14.39999C220.3,33.6,223.39999,31.9,223.39999,28.1
	L223.39999,28.1z M259.20001,41.7V30.3c0-7.1-3.39999-9-13.60001-9h-19.89999v20.5h12.60001V27.9h3.39999c3.8,0,5,2.2,5,4.5v9.3
	H259.20001L259.20001,41.7z"/>
<path d="M282.60001,0c-6.39999,0-15.5,1.9-25.39999,5.5c-8.8,3.2-17.2,7.3-25.10001,12.3c7.60001-2.8,15.60001-4.3,23.7-4.5
	c11.2,0,19.3,4.3,7.49998,19.5C298.20001,10,297.20001,0,282.60001,0z"/>
</svg>
